<svg xmlns="http://www.w3.org/2000/svg" fill-rule="evenodd" stroke-miterlimit="1.41" viewBox="0 0 230 89" clip-rule="evenodd" stroke-linejoin="round">
  <path fill="#34ade3" d="M170.9 0L90.27 15.18l11.62 61.66 80.6-15.18L170.9 0z"/>
  <g fill="#0061a5" fill-rule="nonzero">
    <path d="M4.18 88.06h10.38V76.4h.06l3.9 11.66h6.1l3.84-11.66h.06v11.66H38.9V66.2H24.93l-3.27 11.3h-.06l-3.37-11.3H4.18v21.86z"/>
    <path d="M59.75 79.28H55l2.3-8h.1l2.35 8zm-18.1 8.78h11.27l.82-2.78h7.32l.7 2.78H73.2L66.14 66.2h-17.5l-7 21.86z"/>
    <path d="M75.94 88.06h10.38v-9.92h.06l7.7 9.92h9.73V66.2H93.48v9.13h-.07l-6.34-9.13h-11.1v21.86z"/>
    <path d="M124.66 79.28h-4.75l2.3-8h.1l2.4 8zm-18.1 8.78h11.27l.82-2.78h7.32l.7 2.78h11.43l-7.05-21.86h-17.5l-7 21.86z"/>
    <path d="M167.18 76.95h-10.1v6.03h-1.6c-2.78 0-4.74-1.35-4.74-4.74 0-4.1 3.92-4.47 7.08-4.47 2.78 0 6.3.2 9.03.64v-7.64c-4.63-.67-7.38-1.16-12.37-1.16-8.02 0-14.8 2.7-14.8 11.66 0 8.14 5.67 11.48 14.3 11.48 5.6 0 9.2-.6 13.2-1.92V77z"/>
    <path d="M171.65 88.06h24.68v-5.72H182.7V80.3h13.63v-5.1H182.7v-2.08h13.63V66.2h-24.68v21.86z"/>
    <path d="M210.78 72.2h3.58c1.96 0 2.88.56 2.88 1.93 0 1.63-.55 2.45-3.06 2.45h-3.4V72.2zm-11.05 15.86h11.05v-7.04h.06l5.18 7.04h13.07l-7.6-9.03c3.4-.27 6.8-2.05 6.8-6.4 0-4.13-2.9-6.43-7.9-6.43h-20.7v21.86z"/>
  </g>
  <path fill="#0061a5" fill-rule="nonzero" d="M50.05 19c-7.07-1.2-14.02-2.12-21.94-2.12C12.68 16.88 0 22.44 0 39c0 17.67 11.24 23.6 28.1 23.6 7.93 0 16.45-1.08 21.77-2.35V45.78c-7.13 1.4-11.72 2-17.47 2-4.6 0-9.43-.55-9.43-6.23 0-6.3 4.05-7.2 11.55-7.2 4.3 0 10.88.24 15.54 1.64V19z"/>
  <path fill="#0061a5" fill-rule="nonzero" d="M74.66 30h7.07c3.87 0 5.68 1.1 5.68 3.8 0 3.2-1.03 4.85-6 4.85h-6.7V30zM52.84 61.3h21.82V47.4h.12L85 61.3h25.8L95.83 43.5c6.77-.54 13.42-4.05 13.42-12.63 0-8.17-5.74-12.7-15.54-12.7H52.88V61.3z"/>
  <path fill="#0061a5" fill-rule="nonzero" d="M139.83 49.4c-5.44 0-7.38-3.62-7.38-9.12 0-5.5 1.94-9.13 7.38-9.13 5.44 0 7.37 3.63 7.37 9.13 0 5.5-1.93 9.13-7.37 9.13zm0 13.18c27.56 0 29.8-14.14 29.8-24.06 0-16.92-14.08-21.64-29.8-21.64s-29.8 4.72-29.8 21.64c0 9.92 2.23 24.06 29.8 24.06z"/>
  <path fill="#0061a5" fill-rule="nonzero" d="M171.7 61.3h21.8v-9.9h14.52c13.66 0 20-8.22 20-17.17 0-6.47-2-16.08-17.64-16.08h-38.7V61.3zm21.8-30.5h7.02c4 0 5.7 1.32 5.7 4.34 0 2.66-1.6 4.4-5.7 4.4h-7V30.8z"/>
  <circle cx="139.64" cy="39.73" r="16.71" fill="#0061a5"/>
  <path fill="cyan" fill-rule="nonzero" d="M135.1 47.9l9.53-13.96 2.2 11.75-11.74 2.2zm-1.06-.72l-2.2-11.74 11.73-2.22-9.53 13.96zm23.03-2.76c-.07-.36-.4-.58-.75-.52l-4.43.84-3.2-16.8 3.95-5.78c.18-.3.1-.7-.18-.9-.3-.2-.7-.12-.9.16l-3.96 5.8-16.8 3.16-.82-4.42c-.07-.36-.4-.58-.75-.5l-3.8.7c-.36.07-.58.4-.5.75l.82 4.47-4.43.84c-.36.06-.58.4-.5.75l.7 3.8c.07.34.4.57.75.5l4.4-.83 3.3 17.04c.05.36.38.58.74.52l17.06-3.22.8 4.43c.06.34.4.57.75.5l3.8-.7c.35-.08.58-.4.5-.77l-.82-4.4 4.42-.83c.35-.07.58-.4.5-.75l-.7-3.76z"/>
</svg>