<svg xmlns="http://www.w3.org/2000/svg" fill-rule="evenodd" stroke-miterlimit="1.5" viewBox="0 0 227 88" clip-rule="evenodd" stroke-linecap="round" stroke-linejoin="round">
  <path fill="#34ade3" d="M163.6 0L99.77 24.56l17.82 46.3 63.8-24.56L163.6 0z"/>
    <path fill="#fff" d="M118.25 23.6h41.68v29.1h-41.68z"/>
  <g fill="none" stroke="#0061a5">
    <path d="M139.1 24.7v26.9"/>
    <path d="M152.53 38.15h-26.87"/>
    <circle cx="139.09" cy="38.15" r="8" stroke-width="2"/>
  </g>
  <g fill="#0061a5" fill-rule="nonzero">
    <path d="M3.18 86.48h10.38V74.82h.06l3.9 11.66h6.1l3.84-11.66h.06v11.66H37.9V64.62H23.93l-3.27 11.3h-.06l-3.37-11.3H3.18v21.86z"/>
    <path d="M58.44 77.7H53.7l2.3-8h.08l2.36 8zm-18.1 8.78H51.6l.85-2.78h7.32l.7 2.78H71.9l-7.05-21.86h-17.5l-7 21.86z"/>
    <path d="M74.33 86.48H84.7v-9.92h.07l7.7 9.92h9.72V64.62H91.8v9.12h-.05l-6.34-9.12H74.36v21.86z"/>
    <path d="M122.74 77.7H118l2.3-8h.08l2.36 8zm-18.1 8.78h11.27l.86-2.78h7.32l.7 2.78h11.42l-7.05-21.86h-17.52l-6.98 21.86z"/>
    <path d="M164.96 75.37h-10.1v6.03h-1.6c-2.78 0-4.74-1.35-4.74-4.75 0-4.1 3.92-4.47 7.07-4.47 2.76 0 6.3.22 9 .65v-7.7c-4.6-.65-7.37-1.13-12.36-1.13-8.02 0-14.8 2.7-14.8 11.66 0 8.15 5.68 11.48 14.3 11.48 5.62 0 9.2-.6 13.2-1.92V75.4z"/>
    <path d="M169.12 86.48h24.68v-5.72h-13.63V78.7h13.63v-5.08h-13.63v-2.08h13.63v-6.92h-24.68v21.86z"/>
    <path d="M207.95 70.62h3.58c1.96 0 2.88.55 2.88 1.93 0 1.62-.52 2.45-3.03 2.45h-3.4v-4.38zM196.9 86.48h11.05v-7.04h.06l5.2 7.04h13.08l-7.6-9.03c3.43-.28 6.8-2.05 6.8-6.4 0-4.13-2.9-6.43-7.87-6.43h-20.7v21.86z"/>
  </g>
  <g fill="#0061a5" fill-rule="nonzero">
    <path d="M50.06 18.4c-7.07-1.2-14.02-2.1-21.94-2.1C12.64 16.3 0 21.84 0 38.4 0 56.07 11.25 62 28.12 62c7.92 0 16.44-1.1 21.76-2.36V45.2c-7.13 1.38-11.73 1.98-17.47 1.98-4.56 0-9.4-.54-9.4-6.22 0-6.3 4.05-7.2 11.55-7.2 4.3 0 10.88.25 15.53 1.64v-17z"/>
    <path d="M74.68 29.4h7.06c3.88 0 5.7 1.1 5.7 3.82 0 3.2-1.1 4.84-6.06 4.84h-6.7V29.4zM52.85 60.74h21.83v-13.9h.1L85 60.74h25.83l-15-17.84c6.78-.55 13.43-4.05 13.43-12.64 0-8.16-5.74-12.7-15.53-12.7H52.85v43.17z"/>
    <path d="M169.1 60.73h21.8V50.8h14.52c13.66 0 20-8.2 20-17.16 0-6.47-2-16.07-17.65-16.07H169.1v43.16zm21.8-30.53h7.02c4 0 5.68 1.33 5.68 4.35 0 2.66-1.57 4.4-5.68 4.4h-7.02V30.2z"/>
  </g>
</svg>