<svg xmlns="http://www.w3.org/2000/svg" fill-rule="evenodd" stroke-miterlimit="1.5" viewBox="0 0 52 51" clip-rule="evenodd" stroke-linejoin="round">
  <path fill="none" d="M1 0h50v50.2H1z"/>
  <path fill="#57ffc2" stroke="#fff" stroke-width="2" d="M14 12c0-3.33 2.7-6 6-6h12c3.3 0 6 2.67 6 6h5.5c4.15 0 7.5 3.36 7.5 7.5v15c0 4.13-3.36 7.5-7.5 7.5h-35C4.36 42 1 38.62 1 34.5v-15C1 15.35 4.35 12 8.5 12H14z"/>
  <circle cx="36" cy="27.72" r="10" fill="#57ffc2" stroke="#fff" stroke-width="2"/>
  <path fill="#57ffc2" stroke="#fff" stroke-width="2" d="M7.03 17.72h10v5h-10z"/>
  <path fill="#fff" d="M40.92 32.36c2.86-2.57 3.1-6.97.54-9.83-2.57-2.86-6.98-3.1-9.84-.53 1.95.44 4.35 1.72 6.2 3.78 1.86 2.07 2.88 4.6 3.1 6.58z"/>
</svg>