<svg xmlns="http://www.w3.org/2000/svg" fill-rule="evenodd" stroke-miterlimit="1.5" viewBox="0 0 146 101" clip-rule="evenodd" stroke-linejoin="round">
  <path fill="#57ffc2" d="M123.1.38L27.06 30.2l21.76 70.07 96.04-29.82L123.1.37z"/>
  <path fill="none" stroke="#0a4b5b" stroke-width=".75" d="M123.1.38l-74.28 99.9"/>
  <path fill="none" stroke="#0a4b5b" stroke-width=".75" d="M27.06 30.2L145.2 70.34"/>
  <g fill="#0a4b5b" fill-rule="nonzero">
    <path d="M2.16 89.53c0 1.08.85 1.93 1.92 1.93 1.08 0 1.95-.85 1.95-1.93V80.6l3.42 5.26c.4.62.92 1 1.64 1 .7 0 1.2-.38 1.6-1l3.4-5.33v8.95c0 1.08.8 1.98 1.9 1.98 1.1 0 1.9-.88 1.9-1.98V75.2c0-1.1-.9-1.96-2-1.96h-.4c-.8 0-1.4.33-1.8 1l-4.8 7.8-4.8-7.78c-.37-.6-.96-1.02-1.8-1.02H4c-1.1 0-2 .87-2 1.97v14.4z"/>
    <path d="M23.2 89.6c0 1.04.8 1.86 1.82 1.86.82 0 1.5-.47 1.83-1.24l1.25-2.95H36l1.2 2.83c.37.82 1 1.36 1.9 1.36 1.06 0 1.88-.85 1.88-1.9 0-.26-.07-.52-.2-.8l-6.26-14.14c-.44-.97-1.2-1.56-2.3-1.56H32c-1.08 0-1.87.6-2.3 1.56l-6.27 14.14c-.13.28-.23.57-.23.85zm6.36-5.82l2.5-5.92 2.48 5.92h-4.98z"/>
    <path d="M44.1 89.5c0 1.08.86 1.96 1.94 1.96S48 90.58 48 89.5v-9.6l7.9 10.37c.53.7 1.1 1.15 2.04 1.15h.13c1.1 0 1.98-.87 1.98-1.97v-14.3c0-1.07-.87-1.94-1.95-1.94s-1.95.9-1.95 2v9.3l-7.62-10c-.54-.7-1.1-1.1-2.06-1.1h-.4c-1.1 0-1.98.9-1.98 2v14.3z"/>
    <path d="M63.13 89.6c0 1.04.8 1.86 1.82 1.86.82 0 1.5-.47 1.82-1.24l1.26-2.95h7.9l1.2 2.83c.37.82.98 1.36 1.9 1.36 1.06 0 1.88-.85 1.88-1.9 0-.26 0-.52-.2-.8l-6.2-14.14c-.4-.97-1.2-1.56-2.2-1.56H72c-1.1 0-1.9.6-2.3 1.56l-6.3 14.14c-.14.28-.24.57-.24.85zm6.36-5.82l2.4-5.92 2.5 5.92h-5z"/>
    <path d="M91.82 91.6c2.7 0 4.83-.9 6.3-1.8.94-.55 1.37-1.35 1.37-2.5v-4.36c0-1.1-.9-1.98-2-1.98H93c-.95 0-1.72.77-1.72 1.72s.77 1.7 1.72 1.7h2.67v2.56c-1 .72-2.28 1.08-3.72 1.08-3.18 0-5.44-2.4-5.44-5.7v-.05c0-3.05 2.3-5.6 5.2-5.6 1.7 0 2.9.47 3.9 1.24.3.2.7.5 1.2.5 1.1 0 2-.8 2-1.9 0-.7-.4-1.3-.8-1.6-1.6-1.1-3.4-1.7-6.1-1.7-5.4 0-9.4 4.2-9.4 9.3v.1c0 5.3 3.9 9.2 9.5 9.2z"/>
    <path d="M105.27 91.3h10.08c.98 0 1.77-.77 1.77-1.74 0-.98-.8-1.77-1.77-1.77h-8.13V84h6.85c.97 0 1.77-.77 1.77-1.75 0-.97-.8-1.77-1.77-1.77h-6.85v-3.64h8c.98 0 1.77-.77 1.77-1.75s-.8-1.8-1.8-1.8h-10c-1.1 0-2 .8-2 2v14c0 1.1.8 2 1.9 2z"/>
    <path d="M119.46 89.48c0 1.1.87 1.98 1.97 1.98s1.98-.88 1.98-1.98v-3.93h3.2l3.9 4.88c.5.6 1.1 1.03 2 1.03 1 0 1.9-.72 1.9-1.83 0-.6-.2-1.02-.6-1.5l-2.8-3.35c2.2-.9 3.6-2.64 3.6-5.46v-.05c0-1.7-.5-3.1-1.5-4.1-1.12-1.2-2.9-1.83-5.2-1.83h-6.2c-1.1 0-1.94.87-1.94 1.98v14.16zm3.95-7.4V76.9h4c2 0 3.1.88 3.1 2.57v.05c0 1.52-1.1 2.55-3 2.55h-4z"/>
  </g>
  <g fill="#0a4b5b">
    <path fill-rule="nonzero" d="M18.16 69.93c5.66 0 9.4-1.67 12.6-4.46.7-.6 1.3-1.56 1.3-2.78 0-2-1.66-3.6-3.64-3.6-.9 0-1.72.3-2.32.8-2.23 1.7-4.4 2.8-7.7 2.8-6.06 0-10.26-5.1-10.26-11.1v-.1c0-6.1 4.3-11.1 10.27-11.1 2.8 0 5.1.9 7.3 2.5.6.3 1.3.7 2.4.7 2.1 0 3.9-1.7 3.9-3.8 0-1.4-.7-2.5-1.5-3.1-2.9-2.2-6.5-3.6-11.8-3.6C7.6 33.3 0 41.5 0 51.6v.1c0 10.17 7.74 18.2 18.16 18.2z"/>
    <path fill-rule="nonzero" d="M35.35 65.73c0 2.17 1.72 3.9 3.9 3.9 2.17 0 3.9-1.73 3.9-3.9V58h6.2l7.6 9.6c.9 1.16 2.07 2.02 3.84 2.02 1.8 0 3.6-1.4 3.6-3.6 0-1.2-.5-2-1.3-2.97l-5.4-6.58c4.3-1.77 7-5.2 7-10.77v-.1c0-3.34-1.1-6.12-3.1-8.1-2.37-2.32-5.8-3.6-10.3-3.6H39.2c-2.16 0-3.9 1.73-3.9 3.9v27.93zm7.8-14.62V41h7.73c3.8 0 6.12 1.7 6.12 5.05v.1c0 3-2.18 5-5.97 5h-7.9z"/>
    <path d="M85.58 69.93c10.92 0 18.86-8.25 18.86-18.3v-.1c0-10.08-7.84-18.22-18.76-18.22-10.93 0-18.87 8.3-18.87 18.4v.1c0 10.1 7.9 18.2 18.8 18.2z"/>
    <path fill-rule="nonzero" d="M107.83 65.73c0 2.17 1.72 3.9 3.9 3.9 2.17 0 3.9-1.73 3.9-3.9V58.7h5.9c7.95 0 14.32-4.25 14.32-12.44v-.1c0-7.24-5.1-12.25-13.56-12.25h-10.6c-2.2 0-3.9 1.8-3.9 3.9v28zm7.8-13.96V40.95h6c3.9 0 6.33 1.87 6.33 5.36v.1c0 3.1-2.28 5.4-6.17 5.4h-6.2z"/>
  </g>
  <path fill="#0bebff" fill-rule="nonzero" d="M82.2 57.14l7.1-9.83 1.37 8.5-8.47 1.4zm-.75-.54l-1.35-8.47 8.47-1.35-7.12 9.82zm16.58-1.53c-.04-.25-.28-.42-.53-.38l-3.2.5-1.93-12.1 2.95-4.1c.15-.2.1-.5-.1-.7-.2-.2-.5-.1-.65.1l-2.94 4.1-12.13 2-.5-3.2c-.04-.3-.27-.5-.53-.4l-2.73.4c-.25 0-.42.2-.38.5l.5 3.2-3.18.5c-.25 0-.42.3-.38.5l.44 2.8c.04.2.27.4.53.3l3.18-.5L78.42 61c.04.25.28.4.53.38l12.3-1.96.5 3.2c.05.24.28.4.54.37l2.7-.5c.2-.1.4-.3.4-.5l-.5-3.2 3.1-.5c.2-.1.4-.3.4-.6L98 55z"/>
</svg>