<svg xmlns="http://www.w3.org/2000/svg" fill-rule="evenodd" stroke-miterlimit="1.41" viewBox="0 0 191 97" clip-rule="evenodd" stroke-linejoin="round">
  <path fill="#5ECFFF" d="M161.34 0L53.1 17.34l12.64 78.98L174 78.98 161.32 0z"/>
  <g fill="#0061a5" fill-rule="nonzero">
    <path d="M5.72 87.25h8.54v-9.6h.05l3.2 9.6h5.1l3.2-9.6h.1v9.6h8.58v-18H22.8l-2.7 9.3h-.04l-2.78-9.3H5.72v18z"/>
    <path d="M51.2 80.02h-3.9l1.87-6.57h.08l1.94 6.57zm-14.9 7.23h9.27l.68-2.3h6.02l.58 2.3h9.4l-5.8-18h-14.4l-5.75 18z"/>
    <path d="M64.26 87.25h8.54V79.1h.06l6.32 8.15h8v-18h-8.53v7.52h-.05l-5.22-7.5h-9.12v17.98z"/>
    <path d="M104.1 80.02h-3.9l1.88-6.57h.08l1.94 6.57zm-14.9 7.23h9.28l.68-2.3h6.02l.58 2.3h9.4l-5.8-18h-14.4l-5.75 18z"/>
    <path d="M138.83 78.1h-8.3v4.97h-1.32c-2.2 0-3.9-1.1-3.9-3.9 0-3.38 3.3-3.68 5.9-3.68 2.3 0 5.2.1 7.5.5v-6.3c-3.8-.6-6.03-1-10.2-1-6.6 0-12.12 2.2-12.12 9.6 0 6.7 4.67 9.4 11.78 9.4 4.6 0 7.58-.5 10.88-1.6v-8z"/>
    <path d="M142.26 87.25h20.3v-4.7h-11.2v-1.7h11.2v-4.18h-11.2v-1.7h11.2v-5.7h-20.3v17.98z"/>
    <path d="M174.2 74.2h2.95c1.6 0 2.37.45 2.37 1.6 0 1.32-.46 2-2.52 2h-2.8v-3.6zm-9.1 13.05h9.1v-5.8h.05l4.26 5.8h10.8l-6.2-7.43c2.8-.23 5.6-1.7 5.6-5.27 0-3.4-2.4-5.3-6.5-5.3h-17.1v18z"/>
  </g>
  <g fill="#0061a5" fill-rule="nonzero">
    <path d="M37.95 23.6c-2.96-.84-10.1-2.83-16.02-2.83-16.08 0-22 7.9-22 22.12 0 15.7 6.22 23.2 22.36 23.2 5.2 0 10.3-1.1 15.6-2.6V50.4c-4 .7-7.6 1.4-11.3 1.4-5.3 0-9.3-1.1-9.3-7.38 0-6.16 3.5-7.8 9.4-7.8 5.6 0 8.9.8 11.1 1.1V23.6z"/>
    <path d="M57.24 33.16h6.05c3.6 0 5 1.33 5 4.1 0 4.24-2.6 4.84-5.9 4.84h-5.2v-8.94zM40.62 65.02h16.62V49.9h.18l9.92 15.12h19.22L72.72 46.7c8.34-.18 12.2-4.23 12.2-12.4 0-10.63-7.06-12.44-15.52-12.44H40.62v43.16z"/>
    <path d="M115.3 53.1c-5.43 0-7.36-3.62-7.36-9.12 0-5.5 1.93-9.13 7.37-9.13 5.5 0 7.4 3.63 7.4 9.13 0 5.5-1.9 9.13-7.4 9.13zm0 13.2c27.58 0 29.82-14.16 29.82-24.07 0-16.93-14.1-21.65-29.8-21.65-15.72 0-29.8 4.72-29.8 21.65 0 9.9 2.23 24.06 29.8 24.06z"/>
    <path d="M146.9 65.02h16.64V53h10.88c11.18 0 16.02-5.88 16.02-15.9 0-12.7-5.7-15.24-15.6-15.24H146.9v43.16zm16.64-31.86h5.8c3.27 0 4.9 1.4 4.9 4.77 0 3.57-1.88 4.96-5.87 4.96h-4.83v-9.8z"/>
  </g>
  <circle cx="115.35" cy="42.56" r="16.71" fill="#0061a5"/>
  <path fill="#57ffc2" fill-rule="nonzero" d="M110.88 51l9.9-13.7 1.9 11.8-11.8 1.9zm-1.04-.75l-1.9-11.8 11.82-1.9-9.92 13.7zm23.1-2.13c-.06-.36-.38-.6-.74-.53l-4.44.7-2.7-16.9 4.1-5.7c.2-.3.15-.7-.13-.9-.3-.2-.7-.2-.9.1l-4.1 5.6-16.9 2.7-.7-4.46c-.06-.36-.38-.6-.74-.53l-3.9.6c-.4.07-.6.4-.6.75l.7 4.45-4.46.7c-.36.05-.6.38-.53.73l.6 3.8c.06.34.38.6.74.5l4.5-.7 2.75 17.13c.06.37.4.6.74.55l17.1-2.7.7 4.43c.06.35.4.6.74.53l3.8-.6c.36-.06.6-.4.54-.74l-.73-4.42 4.45-.7c.34-.06.6-.38.5-.74l-.6-3.8z"/>
</svg>